<?xml version="1.0" standalone="no"?>
<!DOCTYPE svg PUBLIC "-//W3C//DTD SVG 20010904//EN"
 "http://www.w3.org/TR/2001/REC-SVG-20010904/DTD/svg10.dtd">
<svg version="1.0" xmlns="http://www.w3.org/2000/svg"
 width="200.000000pt" height="200.000000pt" viewBox="0 0 200.000000 200.000000"
 preserveAspectRatio="xMidYMid meet">
<metadata>
Created by potrace 1.11, written by Peter Selinger 2001-2013
</metadata>
<g transform="translate(0.000000,200.000000) scale(0.100000,-0.100000)"
fill="#000000" stroke="none">
<path d="M0 1635 c0 -71 -2 -69 67 -65 26 1 33 -3 38 -22 3 -13 21 -88 41
-168 20 -80 38 -154 40 -166 2 -11 24 -101 48 -200 50 -202 87 -354 90 -369
18 -93 82 -333 91 -340 7 -6 72 -10 155 -10 114 1 145 4 152 16 4 8 26 82 48
164 22 83 45 166 50 185 6 19 47 170 91 335 45 165 84 304 87 309 5 9 25 -61
188 -669 48 -176 90 -324 95 -330 5 -5 77 -9 159 -10 125 0 151 2 154 15 3 8
16 62 30 120 14 58 51 209 81 335 31 127 58 237 60 245 2 8 8 35 14 60 7 25
14 54 16 65 3 11 16 70 31 130 14 61 28 117 30 125 2 8 10 40 18 70 7 30 17
68 20 83 6 23 12 28 34 27 73 -5 72 -6 72 65 l0 65 -215 0 -215 0 0 -65 0 -65
43 -1 c23 -1 59 -1 80 0 34 1 37 -1 32 -21 -3 -13 -19 -86 -35 -163 -17 -77
-35 -158 -40 -180 -5 -22 -12 -51 -14 -65 -3 -14 -7 -34 -10 -45 -8 -38 -79
-360 -96 -439 -9 -44 -20 -75 -23 -69 -6 10 -70 253 -234 891 l-57 222 -136 0
-135 0 -53 -207 c-29 -115 -54 -217 -56 -228 -31 -145 -175 -686 -179 -675 -4
8 -25 96 -48 195 -22 99 -43 189 -45 200 -3 11 -7 29 -9 40 -3 11 -32 136 -65
278 -33 142 -60 260 -60 262 0 2 12 3 28 3 15 0 51 0 80 1 l52 1 0 65 0 65
-295 0 -295 0 0 -65z"/>
</g>
</svg>
